<svg width="26" height="26" viewBox="0 0 26 26" fill="none" xmlns="http://www.w3.org/2000/svg">
<g clip-path="url(#clip0_472_7637)">
<path d="M7.87528 19.1486L6.82604 18.0994C6.53641 17.8097 6.37793 17.4737 6.35061 17.0911C6.32328 16.7086 6.45171 16.3752 6.73587 16.0911L12.5067 10.3203L7.69494 10.3121C7.29055 10.323 6.9408 10.1809 6.6457 9.88581C6.35061 9.59072 6.20852 9.24097 6.21945 8.83658L6.21125 7.5988C6.21125 7.19441 6.35607 6.8474 6.6457 6.55776C6.92987 6.27359 7.27962 6.12605 7.69494 6.11512L18.3759 6.12331C18.7802 6.12331 19.1273 6.26813 19.4169 6.55776C19.7011 6.84193 19.8486 7.19168 19.8595 7.607L19.8513 18.2715C19.8513 18.6868 19.7065 19.0393 19.4169 19.329C19.1327 19.6131 18.783 19.7552 18.3677 19.7552L17.1463 19.7634C16.731 19.7634 16.3785 19.6186 16.0888 19.329C15.7992 19.0393 15.6544 18.6868 15.6544 18.2715L15.6544 13.468L9.88359 19.2388C9.59942 19.523 9.26607 19.6514 8.88353 19.6241C8.501 19.5967 8.16491 19.4382 7.87528 19.1486Z" fill="#F04347"/>
</g>
<defs>
<clipPath id="clip0_472_7637">
<rect width="17.0642" height="18.5481" fill="white" transform="translate(25.9746 13.1155) rotate(135)"/>
</clipPath>
</defs>
</svg>
