<svg width="140" height="47" viewBox="0 0 140 47" fill="none" xmlns="http://www.w3.org/2000/svg">
<g clip-path="url(#clip0_214_10665)">
<path d="M43.2858 10.0218C43.2858 13.5795 41.6292 16.3344 38.466 17.9893C42.633 19.3411 44.7925 22.399 44.7925 26.9583C44.7925 33.8219 40.2724 37.3304 31.185 37.3304H0V0.952393H29.3253C38.817 0.952393 43.2858 3.05593 43.2858 10.0218ZM14.1104 14.6303H23.6002C26.9646 14.6303 28.5206 14.3804 28.5206 12.025C28.5206 9.56922 26.9134 9.46887 23.6002 9.46887H14.1104V14.6303ZM24.1031 28.259C27.8186 28.259 29.627 28.0091 29.627 25.3034C29.627 22.5978 27.9191 22.2475 24.1031 22.2475H14.1104V28.259H24.1031Z" fill="#FF0000"/>
<path d="M111.126 26.2539C111.377 28.1587 113.637 29.3098 117.504 29.3098C121.271 29.3098 123.229 28.4578 123.229 26.7045C123.229 25.1519 121.521 24.1995 118.157 23.7981L107.612 22.4955C98.8756 21.4427 94.4561 17.7866 94.4561 11.6728C94.4561 3.357 101.185 0 115.445 0C130.26 0 137.74 3.4062 138.343 11.5232H121.924C121.573 9.26816 119.212 8.06586 114.844 8.06586C111.479 8.06586 109.722 9.06745 109.722 10.4705C109.722 12.0742 111.479 12.5248 115.146 13.0266L128 14.8802C136.034 16.0333 140 19.4907 140 25.5022C140 34.6208 131.966 38.4284 115.244 38.4284C101.384 38.4284 94.1544 33.9183 94.0538 26.2539H111.126Z" fill="#FF0000"/>
<path d="M79.0382 0.952393H72.3429L58.9917 37.3284H60.4609L61.7664 33.7215H77.283L78.4879 37.3284H93.754L79.0382 0.952393ZM65.1289 24.8017L69.7495 11.9758L74.1178 24.8017H65.1289Z" fill="#FF0000"/>
<path d="M52.8328 37.3284H54.8838L68.2389 0.952393H66.1859L52.8328 37.3284Z" fill="#FF0000"/>
<path d="M71.1537 0.952393H68.8345L55.4794 37.3284H57.8005L71.1537 0.952393Z" fill="#FF0000"/>
<path d="M65.9769 0.952393H61.1117L45.3447 37.3284H52.6237L65.9769 0.952393Z" fill="#FF0000"/>
<path d="M1.14382 46.9587H0.0729675V42.0786H1.1103C1.98197 42.0786 2.37442 42.4978 2.37442 43.3183V43.4482C2.37442 43.9421 2.16932 44.3317 1.80448 44.4498C2.15551 44.5462 2.42964 44.9496 2.42964 45.5321V45.6698C2.42767 46.512 1.98789 46.9587 1.14382 46.9587ZM1.06888 42.5292H0.5798V44.2353H1.0886C1.72757 44.2353 1.86561 43.9205 1.86561 43.3852C1.86561 42.7831 1.68024 42.5292 1.06888 42.5292ZM1.10241 44.682H0.5798V46.5061H1.10241C1.76109 46.5061 1.92675 46.1499 1.92675 45.595C1.92675 45.046 1.7749 44.682 1.10241 44.682Z" fill="white"/>
<path d="M6.21214 47C5.45683 47 5.03677 46.6025 5.03677 45.6088V42.0786H5.53768V45.5753C5.53768 46.2955 5.74475 46.5415 6.21017 46.5415C6.66967 46.5415 6.87674 46.2955 6.87674 45.5753V42.0786H7.37766V45.6088C7.3816 46.5946 6.96154 47 6.21214 47Z" fill="white"/>
<path d="M11.0694 47C10.3693 47 9.97098 46.5946 9.94337 45.841H10.4384C10.4719 46.3684 10.6849 46.5336 11.0773 46.5336C11.5506 46.5336 11.7498 46.2877 11.7498 45.6698C11.7498 45.3195 11.7163 45.1346 11.5921 44.9712C11.5033 44.861 11.4067 44.8 11.1799 44.7174L10.9255 44.6289C10.5606 44.499 10.4108 44.4085 10.253 44.2097C10.0735 43.9834 10.0203 43.6824 10.0203 43.277C10.0203 42.4348 10.4186 42.0373 11.1266 42.0373C11.7656 42.0373 12.1502 42.3187 12.2054 43.1412H11.7104C11.6828 42.6827 11.525 42.484 11.1187 42.484C10.6987 42.484 10.5133 42.7162 10.5133 43.2652C10.5133 43.5466 10.5468 43.7453 10.6435 43.8693C10.7322 43.9933 10.8367 44.0484 11.0694 44.129L11.31 44.2117C11.6532 44.3278 11.8248 44.4242 11.9766 44.5954C12.1758 44.8276 12.2507 45.1503 12.2507 45.6521C12.2507 46.636 11.8188 47 11.0694 47Z" fill="white"/>
<path d="M14.8894 46.9587V42.0786H15.3982V46.9587H14.8894Z" fill="white"/>
<path d="M20.2871 46.9587L18.8652 43.5446L18.7271 43.153L18.7469 43.5918V46.9567H18.2657V42.0767H18.735L20.151 45.477L20.2891 45.8882L20.2752 45.4356V42.0767H20.7486V46.9567H20.2871V46.9587Z" fill="white"/>
<path d="M23.5568 46.9587V42.0786H25.6118V42.5312H24.0656V44.2648H25.3495V44.7174H24.0656V46.5061H25.6256V46.9587H23.5568Z" fill="white"/>
<path d="M29.0649 47C28.3648 47 27.9665 46.5946 27.9389 45.841H28.4339C28.4674 46.3684 28.6804 46.5336 29.0728 46.5336C29.5461 46.5336 29.7453 46.2877 29.7453 45.6698C29.7453 45.3195 29.7118 45.1346 29.5875 44.9712C29.4988 44.861 29.4022 44.8 29.1754 44.7174L28.921 44.6289C28.5561 44.499 28.4063 44.4085 28.2485 44.2097C28.069 43.9834 28.0158 43.6824 28.0158 43.277C28.0158 42.4348 28.4141 42.0373 29.1221 42.0373C29.7611 42.0373 30.1457 42.3187 30.2009 43.1412H29.7059C29.6783 42.6827 29.5205 42.484 29.1142 42.484C28.6942 42.484 28.5088 42.7162 28.5088 43.2652C28.5088 43.5466 28.5423 43.7453 28.639 43.8693C28.7277 43.9933 28.8303 44.0484 29.0649 44.129L29.3055 44.2117C29.6487 44.3278 29.8203 44.4242 29.9721 44.5954C30.1713 44.8276 30.2462 45.1503 30.2462 45.6521C30.2482 46.636 29.8143 47 29.0649 47Z" fill="white"/>
<path d="M33.7369 47C33.0368 47 32.6384 46.5946 32.6108 45.841H33.1058C33.1393 46.3684 33.3523 46.5336 33.7448 46.5336C34.2181 46.5336 34.4172 46.2877 34.4172 45.6698C34.4172 45.3195 34.3837 45.1346 34.2595 44.9712C34.1707 44.861 34.0741 44.8 33.8473 44.7174L33.5929 44.6289C33.2281 44.499 33.0782 44.4085 32.9204 44.2097C32.741 43.9834 32.6877 43.6824 32.6877 43.277C32.6877 42.4348 33.0861 42.0373 33.7941 42.0373C34.433 42.0373 34.8176 42.3187 34.8728 43.1412H34.3778C34.3502 42.6827 34.1924 42.484 33.7862 42.484C33.3661 42.484 33.1807 42.7162 33.1807 43.2652C33.1807 43.5466 33.2143 43.7453 33.3109 43.8693C33.3996 43.9933 33.5042 44.0484 33.7369 44.129L33.9775 44.2117C34.3206 44.3278 34.4922 44.4242 34.644 44.5954C34.8432 44.8276 34.9182 45.1503 34.9182 45.6521C34.9182 46.636 34.4863 47 33.7369 47Z" fill="white"/>
<path d="M42.4871 46.9587L42.2544 45.9295H40.9844L40.7576 46.9587H40.2626L41.3965 42.0786H41.8363L42.99 46.9587H42.4871ZM41.6983 43.4895L41.6095 43.0035L41.5208 43.4895L41.081 45.4986H42.1519C42.1578 45.4986 41.6983 43.4895 41.6983 43.4895Z" fill="white"/>
<path d="M46.5477 44.9496H45.9561V46.9587H45.4473V42.0786H46.5457C47.3563 42.0786 47.7625 42.5233 47.7625 43.4147V43.6135C47.7625 44.5108 47.3582 44.9496 46.5477 44.9496ZM47.2616 43.4561C47.2616 42.8047 47.0821 42.5312 46.4925 42.5312H45.9561V44.499H46.4925C47.0624 44.499 47.2616 44.2314 47.2616 43.5741V43.4561Z" fill="white"/>
<path d="M51.4661 44.9496H50.8745V46.9587H50.3657V42.0786H51.4642C52.2747 42.0786 52.6809 42.5233 52.6809 43.4147V43.6135C52.6809 44.5108 52.2767 44.9496 51.4661 44.9496ZM52.18 43.4561C52.18 42.8047 52.0006 42.5312 51.4109 42.5312H50.8745V44.499H51.4109C51.9808 44.499 52.18 44.2314 52.18 43.5741V43.4561Z" fill="white"/>
<path d="M55.2841 46.9587V42.0786H55.7929V46.5061H57.3391V46.9587H55.2841Z" fill="white"/>
<path d="M59.8594 46.9587V42.0786H60.3682V46.9587H59.8594Z" fill="white"/>
<path d="M64.2888 47C63.6912 47 63.1134 46.7127 63.1134 45.5872V43.4482C63.1134 42.3246 63.6971 42.0353 64.2888 42.0353C64.9277 42.0353 65.4149 42.3502 65.4365 43.3715H64.9277C64.908 42.8087 64.7838 42.4938 64.2888 42.4938C63.9318 42.4938 63.6222 42.6237 63.6222 43.5013V45.5242C63.6222 46.4018 63.9318 46.5395 64.2888 46.5395C64.7226 46.5395 64.9139 46.2995 64.9277 45.6147H65.4365C65.4168 46.5474 65.0323 47 64.2888 47Z" fill="white"/>
<path d="M69.9014 46.9587L69.6687 45.9295H68.3987L68.1719 46.9587H67.6769L68.8108 42.0786H69.2506L70.4043 46.9587H69.9014ZM69.1126 43.4895L69.0238 43.0035L68.9351 43.4895L68.4953 45.4986H69.5661C69.5721 45.4986 69.1126 43.4895 69.1126 43.4895Z" fill="white"/>
<path d="M73.5695 42.5292V46.9567H73.0686V42.5292H72.1614V42.0767H74.4767V42.5292H73.5695Z" fill="white"/>
<path d="M76.9832 46.9587V42.0786H77.492V46.9587H76.9832Z" fill="white"/>
<path d="M81.4205 47C80.815 47 80.2392 46.7127 80.2392 45.5872V43.4482C80.2392 42.3246 80.817 42.0353 81.4205 42.0353C82.018 42.0353 82.5959 42.3226 82.5959 43.4482V45.5872C82.5959 46.7107 82.018 47 81.4205 47ZM82.0949 43.5033C82.0949 42.6257 81.7853 42.4958 81.4225 42.4958C81.0576 42.4958 80.75 42.6257 80.75 43.5033V45.5262C80.75 46.4038 81.0596 46.5415 81.4225 46.5415C81.7873 46.5415 82.0949 46.4038 82.0949 45.5262V43.5033Z" fill="white"/>
<path d="M87.3486 46.9587L85.9267 43.5446L85.7887 43.153L85.8084 43.5918V46.9567H85.3272V42.0767H85.7946L87.2106 45.477L87.3486 45.8882L87.3348 45.4356V42.0767H87.8081V46.9567H87.3486V46.9587Z" fill="white"/>
<path d="M91.5374 47C90.8373 47 90.4389 46.5946 90.4113 45.841H90.9063C90.9398 46.3684 91.1528 46.5336 91.5453 46.5336C92.0186 46.5336 92.2178 46.2877 92.2178 45.6698C92.2178 45.3195 92.1842 45.1346 92.06 44.9712C91.9713 44.861 91.8746 44.8 91.6478 44.7174L91.3934 44.6289C91.0286 44.499 90.8787 44.4085 90.7209 44.2097C90.5415 43.9834 90.4882 43.6824 90.4882 43.277C90.4882 42.4348 90.8866 42.0373 91.5946 42.0373C92.2335 42.0373 92.6181 42.3187 92.6733 43.1412H92.1783C92.1507 42.6827 91.9929 42.484 91.5867 42.484C91.1666 42.484 90.9813 42.7162 90.9813 43.2652C90.9813 43.5466 91.0148 43.7453 91.1114 43.8693C91.2002 43.9933 91.3047 44.0484 91.5374 44.129L91.778 44.2117C92.1211 44.3278 92.2927 44.4242 92.4446 44.5954C92.6437 44.8276 92.7187 45.1503 92.7187 45.6521C92.7207 46.636 92.2868 47 91.5374 47Z" fill="white"/>
<path d="M99.3213 47C98.6212 47 98.2229 46.5946 98.1953 45.841H98.6902C98.7238 46.3684 98.9368 46.5336 99.3292 46.5336C99.8025 46.5336 100.002 46.2877 100.002 45.6698C100.002 45.3195 99.9682 45.1346 99.8439 44.9712C99.7552 44.861 99.6586 44.8 99.4318 44.7174L99.1774 44.6289C98.8125 44.499 98.6626 44.4085 98.5049 44.2097C98.3254 43.9834 98.2722 43.6824 98.2722 43.277C98.2722 42.4348 98.6705 42.0373 99.3785 42.0373C100.017 42.0373 100.402 42.3187 100.457 43.1412H99.9623C99.9346 42.6827 99.7769 42.484 99.3706 42.484C98.9506 42.484 98.7652 42.7162 98.7652 43.2652C98.7652 43.5466 98.7987 43.7453 98.8953 43.8693C98.9841 43.9933 99.0886 44.0484 99.3213 44.129L99.5619 44.2117C99.9051 44.3278 100.077 44.4242 100.228 44.5954C100.428 44.8276 100.503 45.1503 100.503 45.6521C100.503 46.636 100.071 47 99.3213 47Z" fill="white"/>
<path d="M104.185 47C103.579 47 103.003 46.7127 103.003 45.5872V43.4482C103.003 42.3246 103.581 42.0353 104.185 42.0353C104.782 42.0353 105.36 42.3226 105.36 43.4482V45.5872C105.358 46.7107 104.782 47 104.185 47ZM104.857 43.5033C104.857 42.6257 104.547 42.4958 104.185 42.4958C103.82 42.4958 103.512 42.6257 103.512 43.5033V45.5262C103.512 46.4038 103.822 46.5415 104.185 46.5415C104.549 46.5415 104.857 46.4038 104.857 45.5262V43.5033Z" fill="white"/>
<path d="M108.093 46.9587V42.0786H108.602V46.5061H110.148V46.9587H108.093Z" fill="white"/>
<path d="M113.629 47C112.874 47 112.454 46.6025 112.454 45.6088V42.0786H112.955V45.5753C112.955 46.2955 113.162 46.5415 113.627 46.5415C114.086 46.5415 114.294 46.2955 114.294 45.5753V42.0786H114.794V45.6088C114.796 46.5946 114.378 47 113.629 47Z" fill="white"/>
<path d="M118.658 42.5292V46.9567H118.157V42.5292H117.25V42.0767H119.565V42.5292H118.658Z" fill="white"/>
<path d="M122.072 46.9587V42.0786H122.58V46.9587H122.072Z" fill="white"/>
<path d="M126.509 47C125.903 47 125.328 46.7127 125.328 45.5872V43.4482C125.328 42.3246 125.905 42.0353 126.509 42.0353C127.106 42.0353 127.684 42.3226 127.684 43.4482V45.5872C127.682 46.7107 127.106 47 126.509 47ZM127.181 43.5033C127.181 42.6257 126.872 42.4958 126.509 42.4958C126.144 42.4958 125.836 42.6257 125.836 43.5033V45.5262C125.836 46.4038 126.146 46.5415 126.509 46.5415C126.874 46.5415 127.181 46.4038 127.181 45.5262V43.5033Z" fill="white"/>
<path d="M132.437 46.9587L131.015 43.5446L130.877 43.153L130.897 43.5918V46.9567H130.416V42.0767H130.883L132.299 45.477L132.437 45.8882L132.423 45.4356V42.0767H132.896V46.9567H132.437V46.9587Z" fill="white"/>
<path d="M136.626 47C135.926 47 135.527 46.5946 135.5 45.841H135.995C136.028 46.3684 136.241 46.5336 136.634 46.5336C137.107 46.5336 137.306 46.2877 137.306 45.6698C137.306 45.3195 137.273 45.1346 137.148 44.9712C137.06 44.861 136.963 44.8 136.736 44.7174L136.482 44.6289C136.117 44.499 135.967 44.4085 135.809 44.2097C135.63 43.9834 135.577 43.6824 135.577 43.277C135.577 42.4348 135.975 42.0373 136.683 42.0373C137.322 42.0373 137.706 42.3187 137.762 43.1412H137.267C137.239 42.6827 137.081 42.484 136.675 42.484C136.255 42.484 136.07 42.7162 136.07 43.2652C136.07 43.5466 136.103 43.7453 136.2 43.8693C136.289 43.9933 136.391 44.0484 136.626 44.129L136.866 44.2117C137.209 44.3278 137.381 44.4242 137.533 44.5954C137.732 44.8276 137.807 45.1503 137.807 45.6521C137.807 46.636 137.375 47 136.626 47Z" fill="white"/>
</g>
<defs>
<clipPath id="clip0_214_10665">
<rect width="140" height="47" fill="white"/>
</clipPath>
</defs>
</svg>
