<svg width="194" height="44" viewBox="0 0 194 44" fill="none" xmlns="http://www.w3.org/2000/svg">
<path fill-rule="evenodd" clip-rule="evenodd" d="M23.0967 23.5685C27.0461 24.176 27.58 26.5044 27.8992 28.6716L27.9525 29.0411L27.9887 29.2925L28.181 30.5679C28.5572 33.0029 29.3422 38.0575 29.3422 40.6952C29.3422 41.3543 29.284 41.8603 29.1776 42.1383C29.0004 42.5667 28.4841 42.9778 27.7711 43.3206C26.046 43.7436 24.2429 43.9724 22.3855 43.9724C22.1889 43.9724 21.9954 43.963 21.8012 43.9572C21.0506 43.7447 20.4864 43.3901 20.1877 42.9054C19.2858 41.4425 19.2315 38.1833 19.2134 34.3745L19.2113 33.9327L19.204 32.7911C19.1746 28.759 19.1494 25.2824 20.6196 24.0349C21.1891 23.555 21.9982 23.3962 23.0967 23.5685ZM14.486 32.3471C15.3419 32.2991 15.8923 36.4936 16.0029 39.6743C16.0804 41.8887 15.8471 42.7996 15.4744 43.1267C15.0526 42.9864 14.638 42.8345 14.2295 42.6696C13.957 42.1762 13.7487 41.4001 13.6164 40.3835C13.2124 37.1888 13.5634 32.4034 14.486 32.3471ZM35.9424 38.6153C35.8891 38.9066 35.8138 39.1317 35.721 39.3216C34.9892 39.9067 34.2201 40.4438 33.4153 40.9271C33.1589 40.9701 32.9312 40.9402 32.8199 40.7527C31.7532 38.8852 31.3529 33.0264 32.3851 32.5165C33.7309 31.8687 36.142 37.6024 35.9424 38.6153ZM22.067 0.000488281C34.0839 0.000488281 43.8561 9.48279 44.1256 21.2819L44.1311 21.6898V21.8783C44.1091 27.2081 42.1406 32.0843 38.8975 35.8585C38.7799 35.7997 38.5653 35.6072 38.1765 35.0277C37.7743 34.4452 34.3051 29.1254 34.3051 23.0282C34.3051 21.8316 36.0361 19.9624 37.5678 18.3217C38.7129 17.087 39.7975 15.9225 40.1969 15.0072C40.7056 13.8261 40.3497 13.0014 39.7868 12.7219C39.2772 12.4734 38.5122 12.6547 37.9753 13.6047C37.0944 15.1424 36.8121 15.4297 35.5271 16.4585C34.2626 17.4868 32.2523 18.5219 32.2523 17.182C32.2523 16.4585 33.372 14.82 33.9251 13.6715C34.49 12.5102 33.8811 11.6695 32.7147 11.6695C30.4242 11.6695 28.9038 14.5768 28.9038 15.584C28.9038 16.5904 29.3937 16.7337 29.3937 17.9057C29.3937 19.0865 26.8806 20.6181 24.5133 20.6181C22.2341 20.6181 20.9124 20.1585 20.3648 18.8635L20.2949 18.6817L20.1365 18.215C19.575 16.5797 19.1722 15.3937 18.4709 14.1542C18.0985 13.4988 17.524 13.0444 17.0271 12.6446C16.3777 12.142 16.0408 11.6792 15.9705 11.334C15.9057 10.9916 15.8708 10.3463 16.9809 8.85878C18.0887 7.37972 18.244 6.26237 17.6896 5.68583C17.4887 5.48073 17.1461 5.34932 16.7062 5.34932C15.9281 5.34932 14.8469 5.76011 13.7327 6.88849C12.0007 8.65692 12.984 10.3359 12.984 11.073C12.984 11.8096 12.6666 12.2262 11.6272 13.2284C10.5802 14.2349 10.2188 15.0978 10.0991 18.5661C10.0532 20.3532 9.73734 21.3818 9.4538 22.294C9.20879 23.0935 8.98346 23.8451 8.97128 24.9311C8.95188 26.1345 9.15292 26.9101 9.38753 27.8049C9.61788 28.632 9.86253 29.5797 10.0193 31.1651C10.2686 33.6191 10.1819 35.6921 9.72863 37.8109L9.60766 38.3417L9.57939 38.4942C9.48656 38.8666 9.37622 39.3188 9.22708 39.4883C3.64243 35.5359 0.000610352 29.0811 0.000610352 21.7846C0.000610352 9.75461 9.87964 0.000488281 22.067 0.000488281Z" fill="#373737"/>
<path d="M128.404 15.0746C130.587 15.0746 132.284 15.845 133.496 17.3856C134.708 18.9263 135.313 21.0441 135.313 23.7389V23.9897C135.313 26.6218 134.694 28.7239 133.455 30.2959C132.216 31.8679 130.543 32.6539 128.437 32.6539C126.81 32.6539 125.473 32.0846 124.425 30.9462V39.5001H118.907V15.3881H124.065L124.229 16.9548C125.287 15.7014 126.679 15.0746 128.404 15.0746ZM89.9273 15.0746C92.1868 15.0746 93.9715 15.6022 95.2814 16.6571C96.5913 17.7121 97.2626 19.1588 97.2953 20.9971V28.502C97.3172 30.0584 97.5682 31.249 98.0486 32.0742V32.3406H92.5306C92.3342 31.9959 92.1595 31.4894 92.0067 30.8209C90.9916 32.0429 89.5725 32.6539 87.7496 32.6539C86.0794 32.6539 84.6605 32.1708 83.4924 31.2046C82.3245 30.2385 81.7404 29.0242 81.7404 27.5618C81.7404 25.7235 82.4499 24.3343 83.869 23.3943C85.2881 22.4542 87.3512 21.9841 90.0582 21.9841H91.7611V21.0911C91.7611 19.5348 91.0571 18.7566 89.6489 18.7566C88.339 18.7566 87.6841 19.3729 87.6841 20.6053H82.1661C82.1661 18.9655 82.8947 17.6338 84.3521 16.6101C85.8092 15.5865 87.6677 15.0746 89.9273 15.0746ZM107.889 15.0746C110.224 15.0746 112.102 15.5813 113.521 16.5944C114.94 17.6077 115.649 18.9394 115.649 20.5897H110.115C110.115 19.2319 109.367 18.553 107.872 18.553C107.293 18.553 106.808 18.707 106.415 19.0151C106.022 19.3233 105.825 19.7071 105.825 20.1667C105.825 20.6368 106.066 21.018 106.546 21.3104C107.026 21.603 107.793 21.8432 108.846 22.0311C109.9 22.2193 110.825 22.4438 111.622 22.7049C114.285 23.5822 115.617 25.1542 115.617 27.4209C115.617 28.9667 114.899 30.2254 113.464 31.1968C112.028 32.1682 110.17 32.6539 107.889 32.6539C106.371 32.6539 105.018 32.3929 103.828 31.8705C102.638 31.3482 101.71 30.638 101.044 29.7397C100.378 28.8414 100.045 27.8962 100.045 26.9039H105.203C105.225 27.6872 105.498 28.2591 106.022 28.6195C106.546 28.9798 107.217 29.16 108.036 29.16C108.789 29.16 109.354 29.0137 109.73 28.7213C110.107 28.4288 110.295 28.0476 110.295 27.5775C110.295 27.1284 110.05 26.768 109.558 26.4965C109.067 26.225 108.134 25.9429 106.759 25.6504C105.383 25.358 104.248 24.9741 103.353 24.4988C102.458 24.0236 101.776 23.4465 101.306 22.7675C100.837 22.0886 100.602 21.3104 100.602 20.433C100.602 18.8767 101.274 17.5946 102.616 16.5866C103.959 15.5787 105.716 15.0746 107.889 15.0746ZM66.4318 8.24481V19.587L74.2414 8.24481H81.3475L72.621 19.6183L80.6769 32.3406H73.8655L68.7896 23.8487L66.4318 26.3242V32.3406H60.6846V8.24481H66.4318ZM144.236 15.3881V32.3406H138.702V15.3881H144.236ZM192.896 15.3881V18.2395L185.005 28.2669H193.076V32.3406H178.029V29.3951L185.889 19.4617H176.629L180.317 15.3881H192.896ZM151.635 26.8722C153.145 26.8722 154.367 28.0469 154.367 29.4962C154.367 30.9454 153.145 32.1202 151.635 32.1202C150.126 32.1202 148.903 30.9454 148.903 29.4962C148.903 28.0469 150.126 26.8722 151.635 26.8722ZM164.449 8.24414V20.9052L165.007 20.207L169.177 15.3038H175.809L169.588 22.2085L176.22 32.0922H169.883L166.009 25.8392L164.449 27.3133V32.0922H158.917V8.24414H164.449ZM91.7611 24.8044H90.1565C88.2353 24.8044 87.2748 25.6296 87.2748 27.2799C87.2748 27.7604 87.4439 28.1494 87.7823 28.4472C88.1207 28.7448 88.5518 28.8936 89.0759 28.8936C89.7635 28.8936 90.3339 28.7527 90.7869 28.4707C91.2399 28.1886 91.5646 27.8701 91.7611 27.5149V24.8044ZM127.045 19.1484C125.735 19.1484 124.862 19.5974 124.425 20.4957V27.1702C124.905 28.1103 125.79 28.5803 127.078 28.5803C128.835 28.5803 129.741 27.1284 129.796 24.2246V23.6606C129.796 20.6525 128.879 19.1484 127.045 19.1484ZM141.544 8.24414C143.053 8.24414 144.276 9.47486 144.276 10.9931C144.276 12.5113 143.053 13.742 141.544 13.742C140.036 13.742 138.812 12.5113 138.812 10.9931C138.812 9.47486 140.036 8.24414 141.544 8.24414Z" fill="#373737"/>
</svg>
