<svg width="267" height="31" viewBox="0 0 267 31" fill="none" xmlns="http://www.w3.org/2000/svg">
<path d="M172.771 30.254H165.436V0.322266L189.024 0.341693C189.024 0.341693 193.343 0.180601 196.09 2.89475C196.09 2.89475 198.894 5.23634 198.894 10.9597V30.2494H191.579V10.4611C191.579 10.4611 191.669 8.4427 190.981 7.73438C190.981 7.73438 190.373 6.96502 189.218 6.96502H172.752L172.768 30.2434L172.771 30.254ZM203.992 30.2489V2.22545V0.344616H233.425V6.99631L211.281 6.99459V12.0801H226.665V18.5031H211.281V23.6058H233.562V30.2592H203.975L203.992 30.2489ZM152.656 30.2489V2.22545V0.344616H159.959V30.2592H152.656V30.2489ZM243.938 30.2489V6.98772H237.044V0.336019H264.466V6.98772H251.246V30.2489H243.943H243.938ZM128.535 30.2489V6.98772H121.641V0.336019H149.062V6.98772H135.843V30.2489H128.54H128.535ZM106.511 12.0594C108.296 12.0457 109.364 12.0612 109.793 11.7995C109.793 11.7995 110.543 11.3848 110.552 10.4949L110.554 8.53846C110.554 7.64446 109.795 7.23391 109.795 7.23391C109.226 6.92445 108.261 6.98256 105.97 6.98032H91.7415V12.0589H106.838L106.511 12.0594ZM110.447 30.2489V20.0401C110.447 19.1224 109.68 18.7378 109.68 18.7378C109.334 18.5229 108.298 18.4842 106.772 18.4842H107.127H91.7415V30.2472H84.4382V2.22373V0.342896H107.235C111.172 0.354931 113.89 0.933968 115.763 2.75154C117.602 4.6255 117.846 7.07712 117.857 9.62845V11.7586C117.88 13.9265 116.741 15.9036 115.383 17.0555L115.656 17.191C116.21 17.4595 116.513 17.84 116.513 17.84C117.547 19.1595 117.534 20.2951 117.532 21.6911V30.2546H110.447L110.447 30.2489ZM0.00343846 0.3343V2.21686V30.2403H7.30673V18.4876H29.4332V12.0612H7.30673V6.97912H33.0264V0.327423H0L0.00343846 0.3343Z" fill="#565656"/>
<path d="M261.998 24.9574V26.3307H263.277C263.623 26.3307 263.958 26.2362 264.01 25.7225C264.083 25.0413 263.591 24.9574 263.277 24.9574H261.998ZM261.485 24.5061H263.266C263.885 24.5061 264.482 24.6222 264.534 25.5225C264.556 26.0383 264.399 26.2254 264.01 26.5197C264.42 26.7819 264.431 26.8443 264.493 27.5361C264.534 28.0605 264.461 28.1444 264.682 28.4903H264.074L263.99 27.9874C263.906 27.5146 264.136 26.7819 263.309 26.7819H261.998V28.4904H261.484L261.485 24.5061ZM262.826 23.4058C261.065 23.4058 259.63 24.8414 259.642 26.6139C259.642 28.3744 261.067 29.8099 262.838 29.8014C264.6 29.8014 266.036 28.3744 266.036 26.6036C266.036 24.8414 264.598 23.4058 262.826 23.4058ZM262.838 30.2174C260.837 30.2174 259.221 28.6034 259.221 26.6036C259.212 24.611 260.837 22.9863 262.838 22.9863C264.831 22.9863 266.455 24.611 266.455 26.6036C266.455 28.6048 264.831 30.2105 262.838 30.2174Z" fill="#565656"/>
<path d="M74.3965 30.5455C76.769 29.7396 78.6155 27.0074 79.059 23.5724V22.5795H66.8955V30.5464H74.3948L74.3965 30.5455ZM79.0608 7.97207V7.07377C78.5945 3.48918 76.6109 0.664482 74.0819 0.000859615H66.8972V7.97121L79.0608 7.97207ZM36.252 22.5804V23.5646C36.6924 27.0031 38.5385 29.7401 40.9179 30.5464H48.3794V22.5795L36.252 22.5804ZM41.2291 0.00687692C38.7036 0.670843 36.7144 3.49691 36.252 7.08666V7.9786H48.3794V0.0082523L41.2291 0.00687692ZM79.0694 11.2953H66.9058V19.2657H79.0694V11.2953ZM51.6992 30.5507H63.598V22.5838H51.6992V30.5507ZM63.598 0H51.6992V7.97035H63.598V0ZM36.2623 19.2554H48.3897V11.285H36.2623V19.2554Z" fill="#565656"/>
</svg>
