<svg width="192" height="36" viewBox="0 0 192 36" fill="none" xmlns="http://www.w3.org/2000/svg">
<path d="M81.5863 6.60352C79.1169 6.60352 76.5515 7.29665 73.3765 9.04765L75.1404 13.5392C77.8977 11.9539 80.1752 11.2607 81.8432 11.2607C83.7355 11.2607 84.5694 11.9873 84.5694 12.9449V13.0103C84.5694 13.6714 84.0558 14.0347 82.8055 14.1669L80.6254 14.398C75.1728 14.9923 72.9277 17.4364 72.9277 20.8048V21.0358C72.9277 24.2399 75.4931 26.7494 79.1169 26.7494C81.5031 26.7494 83.576 25.7119 84.8361 23.881L85.2425 26.4196H90.1814V14.8935C90.1814 9.44434 87.1348 6.60352 81.5863 6.60352ZM81.1051 22.3552C79.2777 22.3552 78.4113 21.6287 78.4113 20.5054V20.44C78.4113 19.449 78.956 18.7224 80.9443 18.426L81.8107 18.2938C83.0765 18.1121 83.854 17.8724 84.5694 17.4263V18.8881C84.5694 21.1012 83.2218 22.3552 81.1051 22.3552Z" fill="#565656"/>
<path d="M19.3003 23.0457L35.1471 6.73604L28.8253 0.230469L22.5035 6.73604L25.6503 9.97357L9.81055 26.2862L16.1253 32.7961L22.4471 26.2862L19.3003 23.0457Z" fill="#565656"/>
<path d="M16.1927 0.228329L0.347656 16.5449L6.66572 23.051L22.5108 6.73442L16.1927 0.228329Z" fill="#565656"/>
<path d="M38.2884 9.98028L22.4434 26.2969L28.7614 32.803L44.6065 16.4864L38.2884 9.98028Z" fill="#565656"/>
<path d="M98.9948 0H93.3828V26.4175H98.9948V0Z" fill="#565656"/>
<path d="M63.496 6.60347C60.9447 6.60347 58.8957 7.76596 57.7683 9.5867L57.3393 6.93332H52.4004V33.0166H58.0124V23.9739C59.0806 25.6697 61.1013 26.7421 63.496 26.7421C67.9861 26.7421 71.6423 22.6472 71.6423 16.999V16.3378C71.6423 10.694 67.9861 6.59766 63.496 6.59766M65.8695 16.8363C65.8695 19.8079 64.3624 21.9556 61.8605 21.9556C59.3586 21.9556 57.8515 19.8093 57.8515 16.8363V16.5064C57.8515 13.5333 59.3586 11.3871 61.8605 11.3871C64.3624 11.3871 65.8695 13.5333 65.8695 16.5064V16.8363Z" fill="#565656"/>
<path d="M174.762 6.60352C169.022 6.60352 164.98 10.6984 164.98 16.3466V17.0078C164.98 22.6546 169.022 26.7509 174.762 26.7509C180.503 26.7509 184.544 22.656 184.544 17.0078V16.3466C184.544 10.6998 180.503 6.60352 174.762 6.60352ZM178.771 16.8421C178.771 19.8137 177.264 21.9614 174.762 21.9614C172.26 21.9614 170.753 19.8152 170.753 16.8421V16.5123C170.753 13.5392 172.26 11.393 174.762 11.393C177.264 11.393 178.771 13.5392 178.771 16.5123V16.8421Z" fill="#565656"/>
<path d="M189.72 7.79469V7.69588C189.72 7.13498 189.304 6.73828 188.566 6.73828H187.283V9.77673H187.893V8.75229H188.57L189.08 9.77673H189.753L189.126 8.57501C189.507 8.4544 189.72 8.16088 189.72 7.79469ZM187.891 7.29918H188.565C188.95 7.29918 189.109 7.43141 189.109 7.7293V7.76272C189.109 8.02719 188.948 8.19139 188.565 8.19139H187.891V7.29918Z" fill="#565656"/>
<path d="M188.449 5.11914C186.717 5.11914 185.402 6.47344 185.402 8.2564C185.402 10.0394 186.717 11.3937 188.449 11.3937C190.18 11.3937 191.496 10.0394 191.496 8.2564C191.496 6.47344 190.18 5.11914 188.449 5.11914ZM188.449 10.9635C186.942 10.9635 185.851 9.84029 185.851 8.25495C185.851 6.66961 186.942 5.54635 188.449 5.54635C189.956 5.54635 191.047 6.66961 191.047 8.25495C191.047 9.84029 189.956 10.9635 188.449 10.9635Z" fill="#565656"/>
<path d="M148.483 0H142.871V26.4175H148.483V0Z" fill="#565656"/>
<path d="M159.521 21.9569C157.886 21.9569 157.276 21.1315 157.276 19.3486V11.3884H163.883V6.9303H157.276V2.4707L151.664 3.32949V19.9095C151.664 24.4344 153.909 26.7463 158.399 26.7463C160.388 26.7463 162.729 26.1186 164.653 24.9953L163.05 20.9005C161.926 21.5282 160.355 21.9584 159.521 21.9584" fill="#565656"/>
<path d="M131.004 6.60352C128.535 6.60352 125.969 7.29665 122.794 9.04765L124.558 13.5392C127.316 11.9539 129.593 11.2607 131.261 11.2607C133.153 11.2607 133.987 11.9873 133.987 12.9449V13.0103C133.987 13.6714 133.474 14.0347 132.224 14.1669L130.043 14.398C124.591 14.9923 122.346 17.4364 122.346 20.8048V21.0358C122.346 24.2399 124.911 26.7494 128.535 26.7494C130.92 26.7494 132.994 25.7119 134.254 23.881L134.66 26.4196H139.599V14.8935C139.599 9.44434 136.553 6.60352 131.004 6.60352ZM130.523 22.3552C128.694 22.3552 127.829 21.6287 127.829 20.5054V20.44C127.829 19.449 128.374 18.7224 130.362 18.426L131.229 18.2938C132.494 18.1121 133.272 17.8724 133.986 17.4263V18.8881C133.986 21.1012 132.64 22.3552 130.523 22.3552Z" fill="#565656"/>
<path d="M111.276 6.60352C105.536 6.60352 101.494 10.6984 101.494 16.3466V17.0078C101.494 22.6546 105.536 26.7509 111.276 26.7509C117.016 26.7509 121.058 22.656 121.058 17.0078V16.3466C121.056 10.6998 117.016 6.60352 111.276 6.60352ZM115.284 16.8421C115.284 19.8137 113.776 21.9614 111.275 21.9614C108.773 21.9614 107.266 19.8152 107.266 16.8421V16.5123C107.266 13.5392 108.773 11.393 111.275 11.393C113.776 11.393 115.284 13.5392 115.284 16.5123V16.8421Z" fill="#565656"/>
<path d="M137.623 35.863L135.591 33.1021H135.576V35.863H134.25V31.1113H135.689L137.679 33.7996H137.693V31.1113H139.02V35.863H137.623Z" fill="#565656"/>
<path d="M142.165 33.9594V34.7005H144.987L144.846 35.863H140.768V31.1113H144.846V32.2593H142.165V32.9132H144.281V33.9594H142.165Z" fill="#565656"/>
<path d="M147.811 35.863V32.3319H146.117V31.1113H150.633L150.774 32.3319H149.081V35.863H147.811Z" fill="#565656"/>
<path d="M157.547 34.4099L158.252 31.1113H159.663L158.393 35.863H156.7L155.853 32.9858H155.712L154.866 35.863H153.031L151.902 31.1113H153.313L154.16 34.4099L155.148 31.1113H156.559L157.406 34.4099H157.547Z" fill="#565656"/>
<path d="M160.65 33.4806C160.65 31.9316 161.672 30.9609 163.288 30.9609C164.903 30.9609 165.927 31.9316 165.927 33.4806C165.927 35.0296 164.905 36.0003 163.288 36.0003C161.672 36.0003 160.65 35.0282 160.65 33.4806ZM164.548 33.4806C164.548 32.6596 164.086 32.1699 163.288 32.1699C162.489 32.1699 162.028 32.6596 162.028 33.4806C162.028 34.3031 162.489 34.7913 163.281 34.7913C164.079 34.7913 164.548 34.3016 164.548 33.4806Z" fill="#565656"/>
<path d="M167.424 31.1113H170.115C171.341 31.1113 171.942 31.7086 171.942 32.8158C171.942 33.5758 171.639 34.0931 171.045 34.3372L172.14 35.8659H170.571L169.72 34.6162H168.81V35.8659H167.424V31.1113ZM169.936 33.5017C170.397 33.5017 170.562 33.2372 170.562 32.8769C170.562 32.5165 170.397 32.2593 169.936 32.2593H168.808V33.5017H169.936Z" fill="#565656"/>
<path d="M176.878 33.3927L178.712 35.8485V35.863H177.16L175.749 34.0321H175.185V35.863H173.773V31.1113H175.185V32.8551H175.749L177.019 31.1113H178.712L176.878 33.3927Z" fill="#565656"/>
<path d="M179.841 35.5422V34.2387H179.848C180.62 34.6398 181.372 34.836 182.024 34.836C182.52 34.836 182.769 34.7139 182.769 34.4756C182.769 34.2373 182.604 34.1763 181.615 34.0135C180.534 33.8377 179.814 33.5035 179.814 32.5459C179.814 31.6566 180.574 30.9707 182.057 30.9707C182.651 30.9707 183.27 31.1 183.845 31.3514V32.6418L183.838 32.649C183.29 32.3235 182.552 32.1187 181.958 32.1187C181.43 32.1187 181.22 32.248 181.22 32.4645C181.22 32.7435 181.543 32.7697 182.354 32.9135C183.435 33.1039 184.155 33.4163 184.155 34.4218C184.155 35.2022 183.588 35.9839 181.959 35.9839C181.155 35.9839 180.514 35.8139 179.841 35.5422Z" fill="#565656"/>
</svg>
